<?xml version="1.0" standalone="no"?>
<!DOCTYPE svg PUBLIC "-//W3C//DTD SVG 20010904//EN"
 "http://www.w3.org/TR/2001/REC-SVG-20010904/DTD/svg10.dtd">
<svg version="1.0" xmlns="http://www.w3.org/2000/svg"
 width="226.000000pt" height="226.000000pt" viewBox="0 0 226.000000 226.000000"
 preserveAspectRatio="xMidYMid meet">
<metadata>
Created by potrace 1.14, written by Peter Selinger 2001-2017
</metadata>
<g transform="translate(0.000000,226.000000) scale(0.100000,-0.100000)"
fill="#000000" stroke="none">
<path d="M1012 2238 c-7 -7 -12 -26 -12 -44 0 -28 -4 -32 -34 -38 -69 -13
-173 -75 -226 -134 -79 -88 -95 -139 -96 -307 0 -77 -6 -159 -13 -183 -6 -23
-9 -46 -7 -51 11 -17 -26 -21 -61 -6 -20 9 -66 15 -108 15 -74 0 -74 0 -149
-60 -59 -48 -86 -119 -87 -236 0 -90 -10 -139 -28 -139 -28 0 -52 -116 -37
-180 2 -11 5 -27 6 -35 1 -10 4 -9 9 5 5 11 4 25 -1 32 -5 7 -5 14 1 17 5 4
12 -2 14 -11 3 -11 5 -7 6 10 1 17 -3 26 -9 22 -6 -4 -8 3 -6 17 3 13 5 23 6
23 3 0 11 41 11 58 0 9 4 15 10 12 5 -4 9 -17 9 -30 0 -19 4 -23 17 -18 15 6
16 5 3 -9 -8 -9 -18 -14 -21 -12 -4 2 -10 -3 -13 -12 -9 -24 -8 -27 10 -20 13
5 14 3 7 -6 -9 -12 -33 -87 -33 -102 0 -4 3 -5 7 -3 5 2 24 -15 43 -37 l34
-41 -32 29 c-18 17 -32 25 -32 19 0 -16 60 -64 71 -57 5 3 9 -3 9 -14 0 -10
11 -51 24 -90 l25 -72 -27 7 c-48 14 -120 5 -164 -19 -50 -27 -99 -91 -74 -96
26 -6 129 17 138 31 6 9 8 8 8 -3 0 -19 -53 -40 -98 -40 -18 0 -32 -5 -32 -10
0 -11 88 -53 151 -71 21 -7 39 -16 39 -20 0 -4 17 -13 38 -19 20 -6 62 -22 92
-35 111 -47 126 -53 180 -68 30 -9 69 -14 85 -12 17 2 36 4 43 4 7 1 10 6 6
12 -4 7 1 9 12 7 30 -6 13 -57 -19 -58 -5 0 -6 3 -3 8 2 4 -21 8 -51 9 -30 1
-60 6 -66 12 -6 6 -20 10 -32 10 -16 -1 -16 -2 -3 -6 9 -2 20 -13 23 -24 4
-11 10 -17 14 -15 12 8 118 -27 216 -71 50 -22 110 -47 135 -54 25 -7 51 -17
59 -23 11 -8 13 -8 7 2 -5 9 4 12 36 11 40 -1 41 -2 13 -9 -29 -7 -29 -8 -4
-9 15 0 32 6 39 14 7 8 16 13 20 10 10 -6 137 33 164 50 12 7 37 12 56 9 28
-3 31 -1 17 7 -9 5 -22 7 -27 4 -6 -3 -10 -2 -10 4 0 5 -8 11 -17 13 -33 6 85
37 120 31 48 -7 69 7 122 87 33 50 50 69 58 62 15 -11 48 -12 41 -1 -3 5 4 17
16 29 11 11 20 23 20 26 0 3 41 65 90 136 130 187 137 205 99 231 -20 15 -20
16 22 88 23 41 52 94 66 119 l24 44 -21 29 c-21 28 -21 28 -1 15 12 -7 21 -19
21 -27 0 -10 3 -11 14 -2 11 10 22 9 46 -4 37 -19 73 -28 65 -16 -6 10 19 33
28 26 4 -3 5 -2 2 2 -3 3 4 16 14 27 11 12 33 47 49 79 16 31 31 55 33 53 2
-2 5 31 7 75 4 98 -10 151 -43 169 -14 7 -25 17 -25 21 0 4 -10 10 -22 13 -44
12 -73 46 -77 89 -1 5 -5 5 -11 2 -5 -3 -10 0 -10 7 0 10 -2 10 -9 -1 -6 -9
-10 -10 -14 -2 -3 7 -5 7 -3 -1 2 -7 9 -13 16 -13 7 0 15 -7 17 -15 4 -13 3
-13 -6 0 -6 8 -11 11 -11 7 0 -4 -9 -3 -20 3 -11 6 -17 16 -14 22 5 7 2 8 -5
4 -8 -5 -14 0 -18 13 -3 11 -9 18 -14 15 -5 -3 -9 2 -9 10 0 9 -6 13 -14 10
-8 -3 -30 2 -49 11 -28 13 -34 21 -30 38 5 22 5 22 -11 2 -9 -11 -15 -14 -14
-6 2 7 -3 16 -11 19 -8 3 -11 0 -7 -7 10 -16 6 -15 -68 19 l-66 29 0 49 c0 61
-21 133 -54 183 -31 47 -31 45 -5 52 31 8 21 42 -13 42 -17 1 -43 16 -71 42
-109 100 -261 162 -402 163 -48 0 -64 4 -78 20 -19 23 -28 25 -45 8z m-785
-1230 c-3 -7 -5 -2 -5 12 0 14 2 19 5 13 2 -7 2 -19 0 -25z m43 -83 l25 -30
-27 24 c-16 14 -28 29 -28 34 0 6 1 8 3 6 1 -2 13 -17 27 -34z"/>
<path d="M2135 969 c-11 -17 1 -21 15 -4 8 9 8 15 2 15 -6 0 -14 -5 -17 -11z"/>
<path d="M1318 113 c6 -2 18 -2 25 0 6 3 1 5 -13 5 -14 0 -19 -2 -12 -5z"/>
</g>
</svg>
